<?xml version="1.0" encoding="utf-8"?>
<!-- Generator: Adobe Illustrator 28.1.0, SVG Export Plug-In . SVG Version: 6.00 Build 0)  -->
<svg version="1.1" id="Layer_1" xmlns="http://www.w3.org/2000/svg" xmlns:xlink="http://www.w3.org/1999/xlink" x="0px" y="0px"
	 viewBox="0 0 900 900" style="enable-background:new 0 0 900 900;" xml:space="preserve">
<style type="text/css">
	.st0{fill:#FFFFFF;}
</style>
<g transform="translate(0.000000,900.000000) scale(0.100000,-0.100000)">
	<path class="st0" d="M1260,8190v-450H810H360V4230V720h1080h1080v180v180h-900H720v3150v3150h450h450v450v450h1800h1800v-270v-270
		H3600H1980v-180v-180h2070h2070v-990v-990h180h180v1170v1170h-450h-450v450v450H3420H1260V8190z"/>
	<path class="st0" d="M1440,6660v-180h360h360v180v180h-360h-360V6660z"/>
	<path class="st0" d="M3060,6660v-180h360h360v180v180h-360h-360V6660z"/>
	<path class="st0" d="M4680,6660v-180h360h360v180v180h-360h-360V6660z"/>
	<path class="st0" d="M1440,5760v-180h360h360v180v180h-360h-360V5760z"/>
	<path class="st0" d="M3060,5760v-180h360h360v180v180h-360h-360V5760z"/>
	<path class="st0" d="M4680,5760v-180h360h360v180v180h-360h-360V5760z"/>
	<path class="st0" d="M5045,5393c-365-43-605-135-830-316c-228-185-373-455-406-754c-18-172,3-378,59-558l18-60l-23-36
		c-59-90-85-231-64-344c21-116,100-241,198-316c27-20,36-38,54-104c38-145,110-279,216-402l53-61v-195v-194l-28-39
		c-65-89-153-145-422-267c-411-187-541-266-693-421c-202-206-297-471-297-828V360h2886h2885l-6,108c-18,286-78,486-200,657
		c-23,33-83,98-131,145c-147,140-278,218-616,364c-327,141-412,190-469,269c-29,40-29,40-29,194v155l34,57c61,105,103,229,126,375
		c10,62,16,74,61,124c65,71,103,138,133,232c48,151,43,279-15,410l-30,66l25,86c40,138,49,204,49,353c0,156-17,253-64,375
		c-69,179-191,325-330,392c-71,35-214,78-257,78c-15,0-33,28-77,120l-59,120h-107c-197,0-436-56-620-145l-76-36l-74,73
		c-112,110-226,168-393,200l-68,13l-64,128l-64,127l-128-1C5132,5398,5062,5395,5045,5393z M5169,4915l52-105h59c97,0,212-20,270-48
		c30-14,80-51,110-81c104-105,157-246,167-442c10-190-18-335-87-453c-22-37-40-71-40-74s18-29,40-58c85-113,103-175,75-269
		c-17-61-33-81-133-166l-54-45l-9-111c-14-184-73-330-175-433l-44-46v-301c0-337,1-343,75-458c96-151,264-265,615-420
		c365-160,550-285,633-427c27-47,87-213,87-242c0-15-153-16-1771-16H3268l7,38c14,76,56,179,101,245c93,135,243,234,604,398
		c326,147,416,200,526,310c72,70,120,138,152,216c21,49,22,66,22,366v314l-55,37c-70,46-134,127-191,241c-41,83-60,150-79,287
		c-5,34-10,39-76,69c-83,39-115,73-125,134c-9,63,17,127,78,191c26,28,48,55,48,60c0,4-20,58-44,119c-66,162-89,289-83,445
		c17,381,226,645,603,763c99,31,236,58,340,65C5114,5020,5126,5001,5169,4915z M6629,4561l50-99l123-4c107-3,130-7,178-29
		c141-66,218-194,239-398c11-101,0-254-24-341c-8-30-34-94-57-143l-42-87l45-48c26-26,54-67,64-92c23-58,22-149-1-220
		c-17-50-25-59-84-98c-100-65-96-59-103-158c-11-165-82-386-142-444l-35-34v-254v-255l35-72c62-130,209-262,392-354
		c34-17,142-65,240-107c472-201,625-318,708-537l25-67l-526,2l-527,3l-17,85c-59,291-215,515-480,691c-84,56-315,173-526,267
		c-217,97-313,159-375,245l-29,40v205v204l45,68c76,114,132,258,154,398c9,57,16,69,70,129c97,108,161,261,161,388
		c0,63-27,172-58,239c-29,61-29,62-12,102c64,150,89,428,55,614c-26,141-30,128,55,171c82,42,209,75,337,88
		C6574,4659,6602,4615,6629,4561z"/>
	<path class="st0" d="M1440,4860v-180h360h360v180v180h-360h-360V4860z"/>
	<path class="st0" d="M3060,4860v-180h224h224l58,93c32,50,80,125,106,165c27,39,51,79,54,87c5,13-36,15-330,15h-336V4860z"/>
	<path class="st0" d="M1440,3960v-180h360h360v180v180h-360h-360V3960z"/>
	<path class="st0" d="M3060,3960v-180h245c231,0,245,1,245,18s-43,264-55,320c-5,22-6,22-220,22h-215V3960z"/>
	<path class="st0" d="M1440,3060v-180h360h360v180v180h-360h-360V3060z"/>
	<path class="st0" d="M3060,3060v-180h310h310l-17,43c-9,23-42,103-74,177l-56,135l-237,3l-236,2V3060z"/>
	<path class="st0" d="M1440,2160v-180h360h360v180v180h-360h-360V2160z"/>
	<path class="st0" d="M3060,2160v-180h360h360v180v180h-360h-360V2160z"/>
</g>
</svg>
