<?xml version="1.0" standalone="no"?>
<!DOCTYPE svg PUBLIC "-//W3C//DTD SVG 20010904//EN"
 "http://www.w3.org/TR/2001/REC-SVG-20010904/DTD/svg10.dtd">
<svg version="1.0" xmlns="http://www.w3.org/2000/svg"
 width="3857.000000pt" height="3857.000000pt" viewBox="0 0 3857.000000 3857.000000"
 preserveAspectRatio="xMidYMid meet">
<metadata>
Created by potrace 1.14, written by Peter Selinger 2001-2017
</metadata>
<g transform="translate(0.000000,3857.000000) scale(0.100000,-0.100000)"
fill="#000000" stroke="none">
<path d="M15960 30407 c-3 -3 -43 -8 -90 -11 -47 -4 -98 -9 -115 -12 -16 -2
-46 -6 -65 -8 -330 -40 -763 -167 -1068 -312 -51 -24 -94 -44 -96 -44 -6 0
-213 -113 -261 -143 -139 -86 -342 -223 -365 -247 -3 -3 -39 -32 -80 -65 -111
-89 -132 -107 -291 -265 -312 -310 -528 -610 -726 -1006 -116 -232 -244 -581
-279 -757 -2 -10 -6 -27 -9 -37 -3 -10 -8 -27 -10 -37 -2 -10 -10 -49 -19 -88
-8 -38 -17 -90 -21 -115 -3 -25 -8 -56 -11 -70 -6 -34 -13 -83 -20 -155 -3
-33 -7 -71 -9 -84 -2 -13 -7 -89 -10 -170 -12 -313 -15 -367 -19 -391 -2 -14
-7 -46 -10 -71 -10 -66 -32 -179 -52 -264 -54 -222 -196 -540 -326 -732 -165
-243 -330 -416 -588 -616 -56 -44 -226 -145 -326 -195 -223 -111 -443 -182
-674 -217 -25 -4 -52 -9 -60 -10 -81 -15 -314 -19 -1245 -20 -965 -2 -1212 -6
-1235 -20 -4 -2 -27 -7 -51 -10 -24 -3 -52 -8 -61 -11 -9 -2 -25 -6 -35 -8
-153 -30 -387 -125 -543 -219 -320 -194 -573 -470 -734 -801 -51 -105 -116
-279 -131 -350 -2 -12 -11 -52 -19 -91 -8 -38 -17 -89 -21 -111 -3 -23 -8 -59
-12 -80 -7 -48 -10 -2082 -3 -2094 5 -9 2605 -6 2655 3 17 3 62 8 100 12 67 6
94 9 160 20 17 3 50 8 75 11 25 3 48 8 51 10 4 2 24 6 45 10 68 10 315 74 429
111 337 109 658 267 963 472 375 252 758 635 1009 1009 77 116 143 221 143
228 0 3 11 21 23 42 25 40 122 222 125 235 1 4 8 20 16 35 65 127 209 538 240
685 3 12 16 74 29 137 14 63 28 135 31 160 4 25 8 54 10 65 2 11 7 49 11 85 3
36 8 79 10 95 6 44 14 215 20 410 3 94 7 179 9 190 2 11 7 47 10 80 15 130 74
378 116 480 4 11 20 52 35 90 31 78 101 221 134 275 11 19 24 42 27 50 8 17
124 188 148 217 98 121 134 161 212 239 336 337 792 574 1249 648 50 8 106 18
125 23 34 7 1334 9 10205 16 2272 2 4148 6 4170 10 22 3 60 8 85 11 180 22
413 66 560 106 803 220 1502 687 2015 1345 150 192 300 433 408 657 31 64 57
119 57 122 0 3 11 29 24 58 39 89 47 108 92 241 54 156 104 340 120 437 3 19
8 38 9 41 4 5 32 174 41 244 3 22 7 51 9 64 8 48 19 239 19 346 l1 110 -8165
3 c-4491 2 -8168 1 -8170 -1z"/>
<path d="M16107 24264 c-1 -1 -60 -5 -132 -8 -158 -8 -177 -10 -450 -52 -31
-4 -215 -46 -305 -68 -122 -31 -322 -100 -475 -164 -584 -243 -1099 -632
-1508 -1140 -37 -45 -75 -95 -84 -110 -10 -15 -20 -29 -24 -32 -7 -6 -132
-193 -176 -265 -141 -227 -282 -542 -371 -830 -59 -189 -112 -420 -128 -555
-3 -30 -8 -57 -10 -61 -1 -3 -6 -39 -9 -80 -4 -40 -9 -85 -11 -99 -2 -14 -6
-90 -9 -170 -11 -298 -21 -437 -39 -525 -2 -11 -12 -56 -21 -100 -16 -78 -67
-260 -85 -300 -4 -11 -20 -52 -34 -90 -36 -99 -145 -309 -212 -413 -304 -467
-745 -807 -1258 -971 -129 -41 -273 -75 -366 -86 -30 -4 -82 -10 -115 -15 -33
-5 -539 -9 -1125 -10 -586 0 -1092 -3 -1125 -5 -124 -9 -258 -31 -360 -59
-258 -71 -490 -189 -697 -353 -88 -70 -241 -223 -298 -299 -25 -32 -48 -61
-51 -64 -14 -12 -153 -237 -154 -250 -1 -3 -11 -25 -24 -49 -21 -40 -87 -205
-97 -241 -28 -103 -55 -212 -59 -240 -3 -20 -7 -45 -9 -55 -17 -90 -20 -254
-20 -1157 -1 -909 0 -1027 14 -1030 8 -2 569 -3 1245 -2 1094 1 1388 5 1475
19 25 4 76 10 160 20 40 5 76 11 187 31 16 3 93 21 173 40 740 180 1428 595
1930 1164 41 47 77 87 80 90 33 33 192 247 267 360 88 133 303 532 303 562 0
4 11 31 24 60 92 203 214 635 241 853 4 28 8 57 10 65 3 8 7 44 10 80 4 36 8
76 11 90 5 32 13 211 19 415 3 88 7 171 9 185 2 14 7 48 11 75 13 98 17 121
36 210 34 153 109 363 187 525 62 127 221 367 311 470 86 98 163 177 229 233
42 37 91 78 107 92 61 53 283 195 390 248 158 80 280 127 455 178 59 17 226
49 330 64 92 13 802 16 5975 19 2915 2 5318 6 5340 9 22 3 76 8 119 11 44 4
94 9 110 11 17 2 54 6 81 10 113 12 253 32 299 41 11 2 35 7 51 9 47 9 138 25
165 30 26 5 194 43 220 50 23 6 143 35 162 40 125 29 600 189 713 240 16 7 75
32 130 55 127 53 447 210 543 267 41 24 75 43 77 43 2 0 50 28 107 62 553 334
1034 735 1465 1223 64 72 252 305 296 365 198 275 276 396 458 715 32 56 209
413 209 422 0 4 9 25 19 47 44 94 62 138 58 143 -5 4 -14965 11 -14970 7z"/>
<path d="M15969 18116 c-2 -2 -38 -7 -79 -10 -95 -8 -156 -15 -200 -22 -19 -3
-46 -7 -60 -9 -163 -22 -396 -78 -605 -145 -638 -205 -1248 -611 -1685 -1121
-103 -120 -107 -125 -179 -222 -124 -169 -216 -314 -310 -489 -176 -332 -326
-767 -381 -1108 -7 -41 -14 -84 -16 -95 -4 -18 -14 -101 -29 -235 -3 -25 -7
-115 -10 -200 -8 -232 -15 -381 -21 -420 -75 -511 -243 -888 -564 -1264 -75
-88 -242 -244 -351 -329 -118 -91 -447 -277 -541 -306 -18 -5 -64 -22 -103
-36 -97 -37 -272 -81 -385 -99 -52 -8 -115 -18 -140 -22 -25 -4 -535 -8 -1135
-9 -1264 -3 -1225 -2 -1452 -55 -682 -161 -1220 -690 -1397 -1371 -13 -52 -27
-113 -30 -135 -4 -22 -9 -51 -11 -64 -16 -77 -19 -290 -20 -1185 l0 -990 1285
0 c1129 0 1414 4 1495 19 11 2 47 7 80 11 32 4 68 9 80 11 11 2 40 7 65 10 25
3 47 8 50 9 3 2 26 6 50 10 124 18 584 156 670 200 14 7 54 25 90 40 178 75
424 210 612 336 81 55 256 184 268 198 3 3 30 26 60 51 100 82 295 274 407
400 157 178 309 391 439 617 51 88 194 374 194 388 0 4 7 21 15 38 75 164 188
538 221 732 4 22 8 49 11 60 2 11 6 36 8 55 3 19 7 46 10 60 2 14 7 48 10 75
3 28 8 65 11 84 9 66 15 182 19 393 2 117 6 222 9 234 2 11 7 47 10 80 4 32 8
66 11 74 2 8 6 31 9 50 10 66 64 265 100 363 55 150 157 354 241 482 158 238
330 421 555 590 330 248 695 396 1140 461 25 3 452 7 950 9 829 3 1315 9 1510
20 41 2 129 7 195 10 66 4 143 8 170 10 28 3 84 7 125 10 76 5 155 11 245 20
28 3 77 7 110 10 66 6 146 15 185 20 14 2 55 6 92 10 37 3 75 7 85 9 10 2 45
7 78 10 33 4 71 9 85 11 26 4 164 23 222 30 18 2 50 7 71 10 20 4 47 8 60 10
12 1 49 7 82 14 33 6 78 13 100 16 22 3 51 7 65 10 14 3 36 7 50 10 148 25
296 52 330 59 30 7 166 35 195 40 33 7 165 35 240 52 39 8 80 17 93 20 13 3
60 14 105 25 45 11 89 22 98 24 195 44 678 178 954 263 225 70 817 272 880
301 11 5 124 50 250 99 205 81 490 200 641 268 30 13 80 36 112 50 286 128
833 403 1107 557 50 27 110 61 135 75 25 14 72 40 105 60 33 19 74 42 90 52
235 134 573 346 870 546 281 189 375 256 695 496 220 164 276 207 365 280 253
206 334 275 335 283 0 9 -10591 20 -10601 11z"/>
</g>
</svg>
